<svg fill="white" xmlns="http://www.w3.org/2000/svg" id="groove_logo" viewBox="0 0 144 31.71" aria-labelledby="groove_logo_title groove_logo_desc" role="img">
    <title id="groove_logo_title">Groove Commerce</title>
    <desc id="groove_logo_desc">Design, Development &amp; Marketing for Mid-Market Retailers</desc>
    <path d="M24.79 19.29a12.41 12.41 0 0 1-12.37 12.42 18.93 18.93 0 0 1-9.63-2.59l1.38-2.38a16.23 16.23 0 0 0 8.25 2.18A9.64 9.64 0 0 0 22 19.66a11.7 11.7 0 0 1-9.62 5.13A12.4 12.4 0 1 1 12.42 0a11.29 11.29 0 0 1 9.66 5.42V.69h2.71zM12.42 2.75a9.63 9.63 0 1 0 9.66 9.63 9.63 9.63 0 0 0-9.66-9.63zM42.35 3.84A6.23 6.23 0 0 0 32.6 9v15.11h-2.79V.69h2.79V3.8A6.89 6.89 0 0 1 38.83 0a9 9 0 0 1 4.81 1.42zM43.64 12.38a12.44 12.44 0 1 1 12.42 12.41 12.41 12.41 0 0 1-12.42-12.41zm22.13 0A9.67 9.67 0 1 0 56.06 22a9.65 9.65 0 0 0 9.71-9.62zM71.33 12.38a12.44 12.44 0 1 1 12.41 12.41 12.41 12.41 0 0 1-12.41-12.41zm22.12 0A9.67 9.67 0 1 0 83.74 22a9.65 9.65 0 0 0 9.71-9.62zM96.59.69h3l8.13 18.12L115.84.69h3.08l-11.21 24.87zM143.88 13.75h-21.72a9.55 9.55 0 0 0 9.46 8.25 9.38 9.38 0 0 0 8.38-5.09l2.42 1.41a12.35 12.35 0 1 1 1.58-5.94 7.59 7.59 0 0 1-.12 1.37zM141.13 11a9.58 9.58 0 0 0-19 0z"></path>
</svg>